PathFileType	4	(X/Y/Z)	C:/Users/dbak576/Desktop/Duncan Bakke Modelling Files/H24s1/Static_H24s1.trc	
DataRate	CameraRate	NumFrames	NumMarkers	Units	OrigDataRate	OrigDataStartFrame	OrigNumFrames	
200.00	200.00	4	61	mm	200.00	26	32	
Frame#	Time	LFHD			RFHD			LBHD			RBHD			C7			T10			CLAV			STRN			RBack			LASI			RASI			LPSI			RPSI			RACR1			RUA1			RElbow			RElbowM			RFA1			RWRR			RWRU			RCAR			LACR1			LUA1			LElbow			LElbowM			LFA1			LWRR			LWRU			LCAR			RTH1			RTH3			RTH2			RTH4			RLFC			RMFC			RTB1			RTB2			RTB4			RLMAL			RMMAL			RCAL			RMT1			RMT5			RToe			LTH1			LTH3			LTH2			LTH4			LLFC			LMFC			LTB1			LTB3			LTB2			LTB4			LLMAL			LMMAL			LCAL			LMT1			LMT5			LToe			RTB3			
		X1	Y1	Z1	X2	Y2	Z2	X3	Y3	Z3	X4	Y4	Z4	X5	Y5	Z5	X6	Y6	Z6	X7	Y7	Z7	X8	Y8	Z8	X9	Y9	Z9	X10	Y10	Z10	X11	Y11	Z11	X12	Y12	Z12	X13	Y13	Z13	X14	Y14	Z14	X15	Y15	Z15	X16	Y16	Z16	X17	Y17	Z17	X18	Y18	Z18	X19	Y19	Z19	X20	Y20	Z20	X21	Y21	Z21	X22	Y22	Z22	X23	Y23	Z23	X24	Y24	Z24	X25	Y25	Z25	X26	Y26	Z26	X27	Y27	Z27	X28	Y28	Z28	X29	Y29	Z29	X30	Y30	Z30	X31	Y31	Z31	X32	Y32	Z32	X33	Y33	Z33	X34	Y34	Z34	X35	Y35	Z35	X36	Y36	Z36	X37	Y37	Z37	X38	Y38	Z38	X39	Y39	Z39	X40	Y40	Z40	X41	Y41	Z41	X42	Y42	Z42	X43	Y43	Z43	X44	Y44	Z44	X45	Y45	Z45	X46	Y46	Z46	X47	Y47	Z47	X48	Y48	Z48	X49	Y49	Z49	X50	Y50	Z50	X51	Y51	Z51	X52	Y52	Z52	X53	Y53	Z53	X54	Y54	Z54	X55	Y55	Z55	X56	Y56	Z56	X57	Y57	Z57	X58	Y58	Z58	X59	Y59	Z59	X60	Y60	Z60	X61	Y61	Z61	

26	0.125	-63.70512	-241.21902	1701.41211	8.58764	-232.50847	1704.98792	-84.48289	-425.14371	1670.10754	56.74875	-408.20026	1681.54797	-1.27509	-453.61264	1527.72278	4.00194	-522.83850	1289.27148	-15.33879	-307.87390	1462.34839	-19.92966	-240.86696	1299.68494	119.15385	-516.36688	1435.33142	-143.39699	-306.56549	1050.33887	140.21158	-290.55844	1057.21191	-23.25714	-519.11304	1041.39380	55.45675	-511.07477	1044.28882	124.44708	-387.75751	1520.99561	299.83411	-403.32361	1472.50574	439.38565	-381.41290	1410.83240	411.88492	-326.49048	1365.20850	582.21808	-332.28818	1400.79590	680.47491	-231.83934	1472.80603	700.96930	-237.33403	1400.79919	740.09424	-253.92966	1450.63281	-138.35039	-417.33597	1527.19446	-306.12933	-469.17804	1473.78918	-446.74927	-464.53305	1415.39099	-426.17047	-412.78287	1367.69287	-593.86566	-438.65710	1397.49048	-714.53485	-357.82382	1471.76001	-717.91357	-364.08658	1393.69958	-780.17548	-369.46866	1438.78589	212.58675	-352.12524	809.31097	207.16183	-379.67709	619.97290	172.53793	-301.30167	704.02216	214.04080	-362.19031	714.32281	211.70084	-395.19470	508.18991	78.86217	-399.76019	507.72229	150.91528	-363.35703	372.34732	223.54288	-399.09583	285.34869	155.48802	-380.01251	281.12540	222.81656	-451.06323	75.37680	136.83643	-428.29373	91.14222	187.25481	-509.19394	34.90945	156.77563	-316.23724	39.08273	243.64929	-349.69263	24.40228	170.54260	-255.83467	27.02655	-199.68509	-384.93246	804.89020	-190.04416	-424.71060	622.77936	-167.60400	-341.12299	702.44263	-196.66498	-405.94675	713.20129	-189.85822	-454.12000	524.01233	-56.49203	-451.02551	515.30914	-125.77232	-423.74506	382.67603	-147.41405	-436.58893	198.32140	-206.00764	-449.32114	304.14816	-135.52866	-427.66232	294.83118	-201.00963	-484.87463	73.73703	-117.49583	-462.24667	87.92904	-165.92854	-542.15625	25.98034	-141.36852	-340.42587	39.06870	-229.24445	-378.34277	20.76889	-154.45947	-283.17569	25.96252	163.02022	-399.52039	190.13301 
27	0.130	-62.71684	-241.18637	1701.05444	8.54050	-232.45451	1704.98462	-84.49096	-425.10458	1670.05762	56.74325	-408.15182	1681.56958	-1.25709	-453.56186	1527.70215	4.00200	-522.82184	1289.27209	-15.35884	-307.82510	1462.31006	-19.94040	-240.82930	1299.67505	119.17487	-516.30725	1435.34766	-143.38551	-306.51990	1050.26624	140.21577	-290.52457	1057.15369	-23.24097	-519.07574	1041.39734	55.52651	-511.04001	1044.31726	124.44032	-387.69644	1521.00964	299.62262	-403.38757	1472.57361	439.41406	-381.38589	1410.73438	411.80157	-325.84802	1365.17505	582.19983	-332.22867	1400.72913	680.25671	-231.87677	1472.89502	701.04529	-237.30313	1400.63916	740.16339	-253.82465	1450.56921	-138.43587	-417.29056	1527.33765	-306.13626	-469.13605	1473.78430	-446.79593	-464.50998	1415.47864	-426.14252	-412.74335	1367.65540	-593.89496	-438.65558	1397.45300	-714.52350	-357.79007	1471.67908	-717.88000	-364.06467	1393.63513	-780.17377	-369.45050	1438.69238	212.56012	-352.09259	809.29401	207.15067	-379.67270	619.98511	172.53868	-301.27695	704.02716	214.04041	-362.17813	714.32477	211.68680	-395.18112	508.08914	78.86456	-399.74677	507.75781	150.89072	-363.33438	372.36102	223.60565	-398.97983	285.28738	155.48225	-380.00024	281.09512	222.89720	-451.12296	75.33652	136.86729	-428.29828	91.05176	187.17525	-509.22687	34.87185	156.76373	-316.24936	39.08746	243.94928	-349.67383	24.29337	170.52480	-255.81766	27.02834	-199.66786	-384.91745	804.88403	-189.87651	-424.61285	622.80573	-167.59213	-341.11157	702.44073	-196.63115	-405.88544	713.13812	-189.86261	-454.10144	523.99579	-56.50592	-451.01608	515.33954	-125.78317	-423.72079	382.67343	-147.38617	-436.56604	198.33731	-205.99634	-449.32077	304.16458	-135.51280	-427.70374	294.80869	-201.01007	-484.85886	73.73366	-117.21902	-462.09265	87.74996	-165.88953	-542.09583	26.00921	-142.00418	-340.64252	39.19251	-229.23962	-378.37601	20.77438	-154.44006	-283.20721	25.96658	162.96985	-399.53128	190.17990 
28	0.135	-61.70273	-241.10417	1700.67761	8.54310	-232.47562	1704.91370	-84.45456	-425.06009	1670.04797	56.72720	-408.10574	1681.59082	-1.20882	-453.52524	1527.67383	3.99040	-522.79205	1289.27344	-15.27830	-307.79077	1462.28394	-19.94510	-240.77711	1299.67700	119.19204	-516.24615	1435.36377	-143.33235	-306.50604	1050.20483	140.20169	-290.46841	1057.13525	-23.22019	-519.06543	1041.39526	55.49456	-510.97308	1044.34412	124.47190	-387.67017	1521.01013	299.67374	-403.29553	1472.50879	439.41388	-381.32059	1410.72522	411.83240	-325.89206	1365.12854	582.22321	-332.17270	1400.67798	680.11884	-231.93324	1472.93115	701.24445	-237.54636	1400.42236	740.23688	-253.66566	1450.52515	-138.38815	-417.22440	1527.23816	-306.10635	-469.05972	1473.76428	-446.74292	-464.44333	1415.36511	-426.13745	-412.69113	1367.61719	-593.91919	-438.59174	1397.42322	-714.53827	-357.78214	1471.62854	-717.87567	-364.06116	1393.55530	-780.17773	-369.40598	1438.55493	212.53589	-352.08142	809.28833	207.17061	-379.65189	619.99762	172.54921	-301.25784	704.02600	214.04041	-362.17871	714.32495	211.67192	-395.19934	508.01566	78.89236	-399.65430	507.79135	150.87563	-363.32211	372.37122	223.60767	-398.86301	285.28781	155.45940	-379.97690	281.09653	222.87366	-451.20059	75.22216	136.81392	-428.38205	91.15396	187.20784	-509.26016	34.88357	156.75694	-316.24490	39.10481	244.10953	-349.68500	24.23283	170.52150	-255.83113	27.03489	-199.68015	-384.92551	804.88574	-189.79858	-424.57346	622.79077	-167.60654	-341.10828	702.44965	-196.66751	-405.89282	713.15997	-189.88075	-454.10718	523.98114	-56.51696	-451.00095	515.36243	-125.77988	-423.68451	382.70706	-147.23657	-436.43472	198.31868	-206.07353	-449.34329	304.13361	-135.46413	-427.70325	294.79343	-200.99089	-484.84900	73.70750	-117.32010	-462.15369	87.79807	-165.90701	-542.21564	25.91657	-142.23351	-340.78702	39.27071	-229.24512	-378.36954	20.78443	-154.45490	-283.17932	25.96115	163.01691	-399.48102	190.11221 
29	0.140	-61.17490	-240.95699	1700.51978	8.62348	-232.41779	1704.99976	-84.44270	-424.98944	1670.04834	56.72365	-408.04465	1681.59241	-1.22700	-453.47092	1527.65271	3.98731	-522.78180	1289.27332	-15.25887	-307.74493	1462.27124	-19.94203	-240.72281	1299.68140	119.20589	-516.21710	1435.37500	-143.30609	-306.51062	1050.16870	140.18930	-290.44739	1057.13757	-23.20479	-519.00110	1041.40039	55.48383	-510.94974	1044.32568	124.49124	-387.62100	1521.00159	299.77036	-403.19739	1472.43408	439.25735	-381.21429	1410.73022	411.89941	-326.34726	1365.52075	582.21100	-332.16812	1400.84241	680.09558	-231.98146	1472.90198	701.41510	-237.74692	1400.32495	740.28033	-253.53773	1450.43152	-138.34938	-417.12534	1527.19543	-306.04770	-468.96527	1473.75830	-446.69308	-464.38626	1415.28699	-426.14191	-412.65479	1367.58459	-593.92322	-438.57123	1397.35779	-714.52570	-357.73120	1471.55371	-717.84985	-364.01196	1393.43030	-780.13550	-369.41559	1438.45691	212.51953	-352.06207	809.31415	207.17081	-379.66641	620.01251	172.53307	-301.26099	704.02765	214.04131	-362.18274	714.32483	211.66928	-395.21591	508.00784	78.92049	-399.53922	507.81168	150.90497	-363.31412	372.36478	223.59387	-398.82275	285.28333	155.42439	-379.96881	281.12943	222.61867	-451.22647	75.04346	136.75661	-428.41370	91.23257	187.28397	-509.20248	34.93346	156.74513	-316.19513	39.10103	244.09023	-349.67572	24.25717	170.53706	-255.84268	27.01074	-199.68758	-384.93027	804.88904	-189.80850	-424.58710	622.79053	-167.60985	-341.11444	702.44037	-196.70189	-405.90897	713.19501	-189.87697	-454.11450	523.97675	-56.52214	-450.99365	515.36743	-125.77956	-423.67795	382.74588	-147.35298	-436.51929	198.33966	-206.12529	-449.35663	304.17191	-135.46347	-427.69000	294.78210	-200.99287	-484.88089	73.73595	-117.43683	-462.27414	87.86860	-165.88806	-542.14532	25.97920	-142.12982	-340.73541	39.24359	-229.26131	-378.37167	20.80159	-154.44635	-283.18210	25.95912	163.05925	-399.46106	190.05554 
